<?xml version="1.0" encoding="utf-8"?>
<!-- Generator: Adobe Illustrator 19.2.1, SVG Export Plug-In . SVG Version: 6.00 Build 0)  -->
<svg version="1.1" id="Layer_1" xmlns="http://www.w3.org/2000/svg" xmlns:xlink="http://www.w3.org/1999/xlink" x="0px" y="0px"
	 viewBox="0 0 108 97" style="enable-background:new 0 0 108 97;" xml:space="preserve">
<style type="text/css">
	.st0{fill:#757576;}
	.st1{fill:#D32E2E;}
</style>
<g>
	<g>
		<path class="st0" d="M14.6,96.5c-1.5,0.3-3.1,0.5-4.8,0.5c-6.4,0-9.7-3.1-9.7-9.3c0-5.7,3.2-8.6,9.7-8.6c1.7,0,3.3,0.2,4.8,0.5
			v1.5c-1.5-0.3-2.9-0.5-4.4-0.5c-5.4,0-8.1,2.3-8.1,7c0,5.1,2.7,7.7,8.1,7.7c1.5,0,2.9-0.2,4.4-0.5V96.5z"/>
		<path class="st0" d="M16.3,72.7h1.7l4.1,22.6l7.8-22.6h1.8l8.1,22.8l4.7-22.8H46L41.1,97h-2.6l-7.7-22.2L23.1,97h-2.5L16.3,72.7z"
			/>
		<path class="st0" d="M48.2,91.6c0-3.4,2.5-5.1,7.6-5.1c1.8,0,3.7,0.1,5.7,0.3v-2.2c0-2.6-2.1-3.9-6.2-3.9c-1.8,0-3.7,0.3-5.6,0.8
			V80c1.9-0.6,3.8-0.8,5.6-0.8c5.3,0,7.9,1.9,7.9,5.7V97h-1.1l-0.6-1.3C59.2,96.6,57,97,54.9,97C50.5,97,48.2,95.2,48.2,91.6z
			 M55.8,88c-3.9,0-5.8,1.2-5.8,3.6c0,2.6,1.6,3.9,4.9,3.9c2.2,0,4.4-0.5,6.5-1.4v-5.7C59.5,88.1,57.6,88,55.8,88z"/>
		<path class="st0" d="M67.6,76.3h1.1l0.3,2.9h4.5v1.5h-4.2V92c0,2.3,0.9,3.5,2.7,3.5h1.5V97h-1.5c-3,0-4.5-1.6-4.5-4.8V76.3z"/>
		<path class="st0" d="M89.9,96.5c-1.5,0.3-3.1,0.5-4.8,0.5c-6.4,0-9.7-3.1-9.7-9.3c0-5.7,3.2-8.6,9.7-8.6c1.7,0,3.3,0.2,4.8,0.5
			v1.5c-1.5-0.3-2.9-0.5-4.4-0.5c-5.4,0-8.1,2.3-8.1,7c0,5.1,2.7,7.7,8.1,7.7c1.5,0,2.9-0.2,4.4-0.5V96.5z"/>
		<path class="st0" d="M93,97V72.7h1.8v8.4c2.8-1.3,5.2-1.9,7.4-1.9c3.9,0,5.8,2.2,5.8,6.6V97h-1.8V85.1c0-2.9-1.7-4.3-5-4.3
			c-1.8,0-4,0.8-6.5,2.3v14H93z"/>
	</g>
	<path class="st1" d="M83.9,22.4C85,13.7,80.1,5.1,71.7,1.8c-8.5-3.3-18.2,0.1-23.2,7.3c-3.6-2-7.7-3.1-11.8-3.1
		C23.2,6.1,12.3,17,12.3,30.4s10.9,24.4,24.4,24.4h12.7c2,0,3.7-1.6,3.7-3.7c0-2-1.6-3.7-3.7-3.7H36.6c-9.4,0-17-7.6-17-17
		s7.6-17,17-17c3.9,0,7.8,1.4,10.8,3.9c0.1,0,0.1,0.1,0.2,0.1c0.1,0.1,0.2,0.1,0.3,0.2c0.1,0.1,0.2,0.1,0.4,0.2
		c0.1,0,0.1,0.1,0.2,0.1c0,0,0.1,0,0.1,0c0.1,0,0.3,0.1,0.4,0.1c0.1,0,0.2,0,0.3,0.1c0.1,0,0.2,0,0.4,0c0.1,0,0.2,0,0.4,0
		c0.1,0,0.2,0,0.3,0c0.1,0,0.2,0,0.3-0.1c0.1,0,0.2-0.1,0.3-0.1c0.1,0,0.2-0.1,0.3-0.1c0.1-0.1,0.2-0.1,0.3-0.2
		c0.1-0.1,0.2-0.1,0.3-0.2c0.1-0.1,0.2-0.1,0.3-0.2c0.1-0.1,0.2-0.2,0.3-0.3c0,0,0.1-0.1,0.1-0.1c0-0.1,0.1-0.1,0.1-0.2
		c0.1-0.1,0.1-0.2,0.2-0.3c0.1-0.1,0.1-0.2,0.2-0.3c0-0.1,0.1-0.1,0.1-0.2c2.3-6.1,9.8-9.4,15.9-7c6.1,2.3,9.2,9.2,6.9,15.3
		c-0.2,0.4-0.3,0.9-0.3,1.4c0,2,1.6,3.7,3.7,3.7c5.1,0,9.2,4.1,9.2,9.2c0,4.4-3.1,8-7.2,9l-7-12.7c-0.6-1.1-1.8-1.9-3.1-1.9
		c-1.3,0-2.5,0.6-3.2,1.8l-5.8,9.5l-4.6-8.3c-1-1.8-3.2-2.4-5-1.4c-1.8,1-2.4,3.2-1.4,5l7.6,13.8c0.6,1.1,1.8,1.9,3.1,1.9
		c0,0,0.1,0,0.1,0c1.3,0,2.5-0.7,3.1-1.8l5.8-9.5l5.2,9.3c0.6,1.2,1.9,1.9,3.2,1.9c9.1,0,16.5-7.4,16.5-16.5
		C95.9,30.7,90.8,24.3,83.9,22.4z"/>
</g>
</svg>
