<svg id="Layer_1" data-name="Layer 1" xmlns="http://www.w3.org/2000/svg" viewBox="0 0 83.58 54.19"><title>logo-icon</title><path d="M71.58,22.36A19.28,19.28,0,0,0,59.39,1.84,19.92,19.92,0,0,0,36.18,9.13,24.36,24.36,0,1,0,24.36,54.78H37a3.66,3.66,0,0,0,0-7.32H24.36a17,17,0,1,1,10.8-30.22l0.17,0.11,0.32,0.21L36,17.74l0.17,0.09,0.13,0L36.68,18,37,18l0.36,0h0.36l0.34,0,0.35-.07,0.34-.11,0.32-.13,0.31-.18,0.3-.2,0.26-.22a3.61,3.61,0,0,0,.28-0.28l0.1-.1c0-.05.07-0.11,0.11-0.17a3.21,3.21,0,0,0,.39-0.66c0-.06.07-0.12,0.09-0.18a12.6,12.6,0,0,1,15.88-7,11.94,11.94,0,0,1,6.92,15.27A3.66,3.66,0,0,0,67.05,29a9.21,9.21,0,0,1,2,18.18L62,34.48a3.66,3.66,0,0,0-6.33-.13L50,43.82,45.4,35.56A3.66,3.66,0,1,0,39,39.1l7.6,13.79a3.66,3.66,0,0,0,3.13,1.89H49.8A3.66,3.66,0,0,0,52.93,53l5.76-9.47,5.16,9.34a3.66,3.66,0,0,0,3.2,1.89A16.53,16.53,0,0,0,71.58,22.36Z" transform="translate(0 -0.59)" style="fill:#d32e2e"/></svg>